<svg id="Layer_1" data-name="Layer 1" xmlns="http://www.w3.org/2000/svg" viewBox="0 0 178.77 178.58"><defs><style>.cls-1{fill:#eee942;}.cls-2{fill:#f4d037;}.cls-3{fill:#d5eeef;}.cls-4{fill:#fff;}.cls-5,.cls-6{fill:#231f20;}.cls-6{font-size:33px;font-family:ChalkboardSE-Bold, Chalkboard SE;font-weight:700;}</style></defs><title>March1</title><path class="cls-1" d="M115.57,102a16.9,16.9,0,1,1-.58,30"/><circle class="cls-2" cx="146.22" cy="71.45" r="16.9"/><polygon class="cls-3" points="114.82 153.97 114.82 21.19 106.02 29.19 95.43 21.19 85.69 29.19 74.24 21.19 63.53 29.19 53.19 21.19 42.6 29.19 33.66 21.19 33.66 38.12 32.9 155.51 42.08 148.41 52.67 156.41 62.41 148.41 73.86 156.41 84.57 148.41 94.92 156.41 105.51 148.41 114.82 153.97"/><polyline class="cls-4" points="33.28 39.35 33.28 22.42 42.22 30.42 52.81 22.42 63.16 30.42 73.86 22.42 85.31 30.42 95.05 22.42 105.64 30.42 114.44 22.42 114.44 148.35"/><path class="cls-5" d="M35.78,39.35V22.42l-4.27,1.77,8.94,8a2.55,2.55,0,0,0,3,.39l10.59-8-3-.39,10.35,8a2.58,2.58,0,0,0,3,.39l10.7-8H72.6l11.45,8a2.54,2.54,0,0,0,3-.39l9.74-8-3,.39,10.59,8a2.53,2.53,0,0,0,3-.39l8.8-8-4.27-1.77V148.35c0,3.21,5,3.22,5,0V22.42a2.53,2.53,0,0,0-4.26-1.77l-8.81,8,3-.39-10.59-8a2.53,2.53,0,0,0-3,.39l-9.73,8,3-.39-11.46-8a2.41,2.41,0,0,0-2.52,0l-10.7,8,3,.39-10.35-8c-.8-.62-2.09-1.1-3-.39L41,28.26l3,.39-8.94-8a2.53,2.53,0,0,0-4.27,1.77V39.35c0,3.21,5,3.22,5,0Z"/><path class="cls-5" d="M111.94,30.49V156.41l4.27-1.76-8.94-8a2.54,2.54,0,0,0-3-.4l-10.59,8,3,.4-10.34-8a2.58,2.58,0,0,0-3-.4l-10.71,8h2.52l-11.45-8a2.55,2.55,0,0,0-3,.4l-9.74,8,3-.4-10.59-8a2.52,2.52,0,0,0-3,.4l-8.81,8,4.27,1.76V50.49c0-3.22-5-3.23-5,0V156.41a2.53,2.53,0,0,0,4.27,1.77l8.8-8-3,.39,10.59,8a2.53,2.53,0,0,0,3-.39l9.74-8-3,.39,11.45,8a2.41,2.41,0,0,0,2.52,0l10.71-8-3-.39,10.35,8c.8.62,2.08,1.11,3,.39l10.59-8-3-.39,8.94,8a2.53,2.53,0,0,0,4.26-1.77V30.49c0-3.22-5-3.23-5,0Z"/><path class="cls-5" d="M46.53,53.17H78.82c3.22,0,3.23-5,0-5H46.53c-3.21,0-3.22,5,0,5Z"/><path class="cls-5" d="M46.53,69.54H68.82c3.22,0,3.23-5,0-5H46.53c-3.21,0-3.22,5,0,5Z"/><path class="cls-5" d="M46.53,85.91H71.82c3.22,0,3.23-5,0-5H46.53c-3.21,0-3.22,5,0,5Z"/><path class="cls-5" d="M89.31,53.17h10.91c3.22,0,3.23-5,0-5H89.31c-3.22,0-3.23,5,0,5Z"/><path class="cls-5" d="M89.31,69.54h10.91c3.22,0,3.23-5,0-5H89.31c-3.22,0-3.23,5,0,5Z"/><path class="cls-5" d="M89.31,85.91h10.91c3.22,0,3.23-5,0-5H89.31c-3.22,0-3.23,5,0,5Z"/><path class="cls-5" d="M72.73,120.82H99.57c3.22,0,3.23-5,0-5H72.73c-3.22,0-3.22,5,0,5Z"/><text class="cls-6" transform="translate(44.22 128.91)">$</text><path class="cls-5" d="M115.7,106c9.22-6.18,22.41-.71,22.41,11.09s-13.19,17.26-22.41,11.08c-2.68-1.8-5.18,2.53-2.52,4.32,12.42,8.32,29.93,0,29.93-15.4s-17.51-23.73-29.93-15.4c-2.66,1.78-.16,6.11,2.52,4.31Z"/><path class="cls-5" d="M136.85,60.37c9.22-6.18,22.41-.72,22.41,11.08s-13.19,17.26-22.41,11.08c-2.68-1.79-5.18,2.54-2.52,4.32,12.42,8.33,29.93,0,29.93-15.4s-17.51-23.73-29.93-15.4c-2.66,1.78-.16,6.12,2.52,4.32Z"/><path class="cls-5" d="M132,76.68c-3.53-10.8,5.76-22.29,17.29-18.45,10.89,3.63,12.29,17.24,4.08,24.34-2.44,2.11,1.11,5.63,3.53,3.54,11.14-9.63,8-28.11-6.29-32.7-15.08-4.83-28.15,10.15-23.43,24.6,1,3,5.83,1.74,4.82-1.33Z"/><path class="cls-5" d="M126.65,113c3.38,2.19,2.67,6.47-.69,8.13-2.88,1.43-.35,5.75,2.53,4.32,6.91-3.43,7-12.7.69-16.77-2.71-1.75-5.22,2.57-2.53,4.32Z"/></svg>