<svg id="Layer_1" data-name="Layer 1" xmlns="http://www.w3.org/2000/svg" viewBox="0 0 571.53 192.3"><defs><style>.cls-1{fill:#19ad72;}.cls-2,.cls-7{fill:#231f20;}.cls-3{fill:#f7b818;}.cls-4{fill:#f6e430;}.cls-5{fill:#b1dcc2;}.cls-6{fill:#f0f8f2;}.cls-7{font-size:55.75px;font-family:ChalkboardSE-Regular, Chalkboard SE;}.cls-8{fill:none;stroke:#231f20;stroke-miterlimit:10;stroke-width:5px;stroke-dasharray:8 6;}.cls-9{fill:#fff;}.cls-10{fill:#98d9ed;}.cls-11{fill:#e65762;}</style></defs><title>March1</title><rect class="cls-1" x="202.17" y="53.77" width="179.64" height="84"/><path class="cls-2" d="M381.81,135.27H202.17l2.5,2.5v-84l-2.5,2.5H381.81l-2.5-2.5v84c0,3.21,5,3.22,5,0v-84a2.53,2.53,0,0,0-2.5-2.5H202.17a2.54,2.54,0,0,0-2.5,2.5v84a2.54,2.54,0,0,0,2.5,2.5H381.81C385,140.27,385,135.27,381.81,135.27Z"/><ellipse class="cls-3" cx="96.9" cy="82.55" rx="13.39" ry="12.94"/><circle class="cls-4" cx="136.88" cy="103.91" r="15.42"/><rect class="cls-5" x="190.81" y="42.72" width="179.64" height="84"/><path class="cls-2" d="M370.44,124.21H190.81l2.5,2.5v-84l-2.5,2.5H370.44l-2.5-2.5v84c0,3.22,5,3.23,5,0v-84a2.53,2.53,0,0,0-2.5-2.5H190.81a2.53,2.53,0,0,0-2.5,2.5v84a2.53,2.53,0,0,0,2.5,2.5H370.44C373.66,129.21,373.67,124.21,370.44,124.21Z"/><ellipse class="cls-6" cx="281.62" cy="84.09" rx="27.8" ry="23.35"/><text class="cls-7" transform="translate(265.41 103.13) scale(1.02 1)">$</text><path class="cls-2" d="M206.14,102.14V70.32L203,72.73C215,77,226,67,223.78,54.7l-2.41,3.17H250c3.21,0,3.22-5,0-5h-28.6A2.53,2.53,0,0,0,219,56c1.58,8.78-6.53,14.76-14.66,11.88a2.52,2.52,0,0,0-3.16,2.41v31.82c0,3.22,5,3.23,5,0Z"/><path class="cls-2" d="M354.5,85.94l.05,13.32,3.17-2.41c-12.05-4.25-23,5.78-20.78,18.06l2.41-3.17-28.6.05c-3.22,0-3.22,5,0,5l28.6-.05a2.53,2.53,0,0,0,2.41-3.16c-1.6-8.78,6.49-14.78,14.63-11.91a2.52,2.52,0,0,0,3.16-2.41l-.05-13.32c0-3.21-5-3.22-5,0Z"/><path class="cls-2" d="M354.53,71.51l.05,4.68c0,3.21,5,3.22,5,0l-.05-4.68c0-3.21-5-3.22-5,0Z"/><path class="cls-2" d="M259.74,95.1c-3.06-3.21-5.69-6.42-5.54-11.17s3-7.8,6.17-10.84c2.34-2.23-1.2-5.76-3.53-3.54-4.24,4-7.49,8.26-7.64,14.38s3,10.51,7,14.71c2.23,2.33,5.76-1.21,3.54-3.54Z"/><path class="cls-2" d="M302.83,73.08c3.12,3.16,5.83,6.29,5.8,11s-2.77,7.87-5.91,11c-2.29,2.26,1.24,5.8,3.53,3.53,4.13-4.1,7.35-8.41,7.38-14.52s-3.18-10.45-7.27-14.57c-2.27-2.29-5.8,1.24-3.53,3.53Z"/><path class="cls-2" d="M173.05,82.45V39.09c0-6.93,1.52-13.72,10-14.14,2.71-.13,5.46,0,8.18,0h49.36c2.6,0,3.23-3.3,1.26-4.65l-8.75-6c-2.66-1.83-5.16,2.5-2.52,4.31l8.75,6L240.55,20H191.19a94.48,94.48,0,0,0-9.67.08,15,15,0,0,0-13.1,11.43c-1.49,6.48-.37,14.7-.37,21.37V82.45c0,3.22,5,3.23,5,0Z"/><path class="cls-2" d="M233.06,30.61l8.75-6c2.64-1.81.14-6.14-2.52-4.31l-8.75,6c-2.64,1.81-.14,6.14,2.52,4.31Z"/><path class="cls-2" d="M395.8,112.75V134c0,6,.58,13.36-6.58,15.76-3.37,1.13-7.53.54-11,.54H308.3c-2.6,0-3.23,3.31-1.26,4.66l8.75,6c2.66,1.83,5.16-2.51,2.52-4.32l-8.74-6-1.27,4.66h70c4.63,0,9.73.61,14-1.43,5.54-2.64,8.29-8,8.46-13.95.27-9,0-18.09,0-27.12,0-3.21-5-3.22-5,0Z"/><path class="cls-2" d="M315.79,144.3l-8.75,6c-2.64,1.81-.14,6.14,2.53,4.31l8.74-6c2.64-1.81.14-6.14-2.52-4.31Z"/><line class="cls-8" x1="229.19" y1="126.6" x2="191.83" y2="161.54"/><line class="cls-8" x1="163.9" y1="142.08" x2="190.76" y2="171.21"/><line class="cls-8" x1="159.53" y1="149.32" x2="131.25" y2="175.75"/><path class="cls-9" d="M107.23,72c.23.22-18.9,22.63-18.9,22.63l15.65.62,8-11.62Z"/><line class="cls-8" x1="406.8" y1="33.11" x2="367.55" y2="69.8"/><path class="cls-2" d="M133.43,116.92c-10.93-2.45-15.81-15.78-7.32-23.92s21.6-2.09,23.45,8.75c.54,3.17,5.36,1.83,4.82-1.32-2.51-14.74-20.7-21.59-31.8-11s-5,29,9.53,32.27c3.13.7,4.47-4.12,1.32-4.82Z"/><path class="cls-2" d="M148.6,109.21c-5.1,9.6-18.82,11.16-24.66,1.29-6.2-10.48,3-21.89,14.29-20.86,3.21.29,3.19-4.71,0-5C123,83.25,111.61,99.46,119.62,113c7.68,13,26.43,11.66,33.29-1.29,1.51-2.84-2.8-5.37-4.31-2.52Z"/><path class="cls-2" d="M89,90.51c-5.63-7.39-2.32-18.76,7.73-19.61,9.85-.82,15.44,9.89,10.82,18-1.59,2.8,2.73,5.33,4.31,2.52C118.36,80,110.46,65.11,96.75,65.9c-13.52.79-20.06,16.62-12,27.14,1.92,2.52,6.27,0,4.31-2.53Z"/><path class="cls-2" d="M108.13,87.78c-4.7,8.12-16.75,8.82-21-.16s3.75-17.71,13-16.58c3.19.38,3.16-4.62,0-5-13.11-1.6-23.49,12-17.31,24.11s23.1,11.52,29.69.16c1.62-2.79-2.7-5.31-4.32-2.53Z"/><path class="cls-2" d="M137.62,64.91v-26c0-3.22-5-3.22-5,0v26c0,3.21,5,3.22,5,0Z"/><path class="cls-2" d="M151.64,77.28v-26c0-3.21-5-3.22-5,0v26c0,3.22,5,3.22,5,0Z"/><path class="cls-2" d="M127.23,74.05V56.51c0-3.21-5-3.22-5,0V74.05c0,3.22,5,3.23,5,0Z"/><path class="cls-2" d="M87,48.28V29.53c0-3.22-5-3.22-5,0V48.28c0,3.22,5,3.23,5,0Z"/><path class="cls-2" d="M97,58.28V47.53c0-3.22-5-3.22-5,0V58.28c0,3.22,5,3.23,5,0Z"/><path class="cls-10" d="M438.61,91.52h26.77a26.77,26.77,0,1,1-26.77-26.77Z"/><path class="cls-2" d="M438.61,94h26.77l-2.5-2.5c-.54,20.93-26.16,32.35-41.39,17.12s-3.82-40.84,17.12-41.39l-2.5-2.5V91.52c0,3.22,5,3.22,5,0V64.75a2.54,2.54,0,0,0-2.5-2.5c-25.24.66-39,31.57-20.65,49.93s49.27,4.58,49.92-20.66a2.53,2.53,0,0,0-2.5-2.5H438.61C435.4,89,435.39,94,438.61,94Z"/><path class="cls-11" d="M448.92,81.76V59.85a22,22,0,0,1,21.9,21.91V82Z"/><path class="cls-2" d="M451.42,81.76V59.85l-2.5,2.5A19.73,19.73,0,0,1,468.32,82l2.5-2.5-21.9-.22c-3.22,0-3.22,5,0,5l21.9.22a2.53,2.53,0,0,0,2.5-2.5c.07-13.59-11.07-24.25-24.4-24.63a2.53,2.53,0,0,0-2.5,2.5V81.76C446.42,85,451.42,85,451.42,81.76Z"/><path class="cls-2" d="M465.41,65.74l6.13-13.64-2.16,1.24h20.13c3.22,0,3.23-5,0-5H469.38a2.45,2.45,0,0,0-2.16,1.24L461.1,63.21c-1.31,2.91,3,5.46,4.31,2.53Z"/><path class="cls-2" d="M460.23,109.71h25.28c3.22,0,3.23-5,0-5H460.23c-3.21,0-3.22,5,0,5Z"/><path class="cls-2" d="M490.4,50.84c0-.16.11-.43,0-.13a.81.81,0,0,1,.2-.39c.12-.13.13-.15,0,0s.25-.15.3-.18.18-.07,0,0l.3,0c.16,0,.43.11.13,0,.12,0,.59.38.44.23s.14.25.18.3.07.19,0,0,0-.11,0,.22c0,.16-.1.44,0,.13a1.4,1.4,0,0,1-.29.5c.27-.3-.15.06-.24.12s-.19.07-.06,0,.12,0-.06,0-.66-.11-.28,0a1.44,1.44,0,0,1-.51-.29c.3.26,0-.13-.11-.24s-.07-.19,0,0,0,.11,0-.22a2.5,2.5,0,1,0,5,0A4.2,4.2,0,1,0,491.12,55a4.27,4.27,0,0,0,4.28-4.19,2.51,2.51,0,0,0-2.5-2.5A2.56,2.56,0,0,0,490.4,50.84Z"/><path class="cls-2" d="M486.4,107.21c0-.17.11-.43,0-.13a.77.77,0,0,1,.2-.39c.12-.13.13-.15,0,0s.25-.15.3-.18.18-.07,0,0l.3,0c.16,0,.43.11.13,0,.12,0,.59.39.44.24s.14.25.18.3.07.19,0,0,0-.11,0,.22c0,.16-.1.44,0,.13a1.4,1.4,0,0,1-.29.5c.27-.3-.15.06-.24.12s-.19.07-.06,0,.12,0-.06,0-.66-.11-.28,0a1.44,1.44,0,0,1-.51-.29c.3.26,0-.13-.11-.24s-.07-.19,0-.06,0,.12,0-.21a2.5,2.5,0,1,0,5,0,4.2,4.2,0,1,0-4.28,4.19,4.27,4.27,0,0,0,4.28-4.19,2.51,2.51,0,0,0-2.5-2.5A2.56,2.56,0,0,0,486.4,107.21Z"/></svg>