<svg id="Layer_1" data-name="Layer 1" xmlns="http://www.w3.org/2000/svg" viewBox="0 0 178.77 178.58"><defs><style>.cls-1{fill:#eab837;}.cls-2{fill:#f4cfe3;}.cls-3{fill:#f5b9d5;}.cls-4{fill:#231f20;}.cls-5{fill:#f4d44d;}</style></defs><title>March1</title><circle class="cls-1" cx="92.32" cy="35.07" r="15.46"/><path class="cls-2" d="M43.11,125.06a53.65,53.65,0,0,1-3.7-5.35,47.29,47.29,0,0,1-6.89-24.49c0-29.18,27.16-52.84,60.66-52.84a68,68,0,0,1,26.5,5.29c2.69,1.14,15.26-11.55,17.71-10.09s-5.22,17.08-3,18.83c7.25,5.84,13.86,14.2,17.16,22.5.65,1.64,10.21,3.32,10.68,5,.42,1.55.59,21.43,0,23.72-.4,1.45-9.87,3.87-10.41,5.27a33.5,33.5,0,0,1-10.17,13.72"/><polygon class="cls-3" points="36.55 109.3 45.67 134.04 63.24 143.21 134.4 143.21 139.53 139.41 141.57 125.66 36.55 109.3"/><path class="cls-2" d="M115,141.35a59.43,59.43,0,0,1-8.74,2.51c-1.06.2-2.12.38-3.2.53a70.68,70.68,0,0,1-9.84.69,64.67,64.67,0,0,1-21.51-3.42"/><path class="cls-4" d="M114.29,138.94a65.55,65.55,0,0,1-41.95.31c-3.07-1-4.38,3.82-1.33,4.82a70.07,70.07,0,0,0,44.61-.31c3-1,1.73-5.88-1.33-4.82Z"/><path class="cls-4" d="M45.26,122.8c-14.71-19.31-12.92-45,4.41-62,16.35-16,41.62-20.67,63.16-14,3.53,1.09,6.31,3.24,9.89,1.69,3.09-1.33,5.75-3.8,8.43-5.79,1.27-.95,3.62-2,4.59-3.17.19-.23,1.06-.34,1.15-.56l-1.51-.92a6.26,6.26,0,0,1-.18,1.35c-1.6,2.58-2.25,7.47-3,10.42-.52,2-1.28,4.6-.2,6.58.9,1.65,3,2.77,4.35,4.07a58,58,0,0,1,8.39,10c2.08,3.14,3.08,8.12,6.21,10.26a19.87,19.87,0,0,0,4.81,1.91c.67.23,1.34.43,2,.67,1.24.45,2,.58,2.06.61.51.87.15,3.46.18,4.39,0,2.07.07,4.14.08,6.21,0,2.26,0,4.51-.06,6.77,0,.94.35,3.63-.21,4.42-1.11,1.56-7,2-9.1,3.77-1.53,1.3-2,3.34-2.95,5.06a32.7,32.7,0,0,1-7.94,9.34c-2.49,2,1.07,5.57,3.53,3.53a36.25,36.25,0,0,0,6.12-6.38,35.44,35.44,0,0,0,2.95-4.62c.37-.68.76-2.43,1.24-2.93,2.47-2.58,7.62-1.93,10.07-4.75,1.62-1.86,1.23-5.15,1.29-7.44.11-4.48.09-9,0-13.43-.07-2.31.33-5.44-1.44-7.2-2.58-2.56-7.73-1.76-10.08-4.25-.63-.67-1-2.55-1.46-3.42q-1.14-2.22-2.49-4.33a65.6,65.6,0,0,0-6.07-8q-1.71-1.92-3.56-3.7c-1-.93-3.16-2.15-3.76-3.31.69,1.33.27-.11.51-.86.3-.95.48-2,.75-2.94.92-3.23,6.58-15.6-.49-15.87-3.09-.12-6.41,3.05-8.69,4.74-1.63,1.22-3.24,2.48-4.93,3.63-2.46,1.68-2.57,2-5.21,1-22.87-8.69-50.32-4.64-69,11.31-21.11,18-25,48.39-8.07,70.66,1.92,2.52,6.27,0,4.31-2.53Z"/><polyline class="cls-3" points="71.67 142.29 70.67 149.62 49.42 148.62 43.1 124.06"/><path class="cls-4" d="M69.26,141.62l-1,7.34,2.41-1.84-21.25-1L51.83,148,45.52,123.4c-.81-3.11-5.63-1.79-4.83,1.33L47,149.29a2.55,2.55,0,0,0,2.41,1.83l21.25,1a2.5,2.5,0,0,0,2.41-1.83l1-7.34c.43-3.15-4.39-4.51-4.82-1.33Z"/><polyline class="cls-3" points="141.57 125.66 137.21 148.62 115.96 149.62 114.96 141.35"/><path class="cls-4" d="M139.16,125l-4.36,23,2.41-1.84-21.25,1,2.5,2.5-1-8.27c-.38-3.16-5.39-3.2-5,0l1,8.27a2.54,2.54,0,0,0,2.5,2.5l21.25-1a2.54,2.54,0,0,0,2.41-1.83l4.36-23c.6-3.14-4.22-4.49-4.82-1.33Z"/><path class="cls-4" d="M81.06,55.62a44.77,44.77,0,0,1,23.32,0c3.1.91,4.42-3.91,1.33-4.82-8.32-2.45-17.59-2.14-26,0-3.11.79-1.79,5.62,1.33,4.82Z"/><path class="cls-4" d="M40.19,65c1,.14-.13,0-.5-.11-.74-.17-1.49-.32-2.22-.53a15,15,0,0,1-6.09-3c-2.26-2.08-2.48-4.9-1.2-7.63,1.84-4,6.51-3.27,5.36,1.45-1,3.94-6.14,4.87-9.59,4.24-6.67-1.22-7.66-7.88-7-13.6.39-3.19-4.62-3.16-5,0C13.1,53,15.11,60.85,22.62,63.6c5,1.85,11.92,1,15.66-3.1,4.29-4.72,2.86-14.4-4.53-14.65C26,45.6,22.31,56.08,25.62,62c2.79,5,9.17,7.23,14.57,7.95,3.18.43,3.14-4.57,0-5Z"/><path class="cls-5" d="M95.91,19.19A16,16,0,1,1,76.79,36.51"/><path class="cls-4" d="M95.24,21.6c10.54,2.63,14.9,15.74,6.46,23.38s-21,1.41-22.5-9.13c-.46-3.17-5.28-1.82-4.82,1.33,2.12,14.46,19.83,21.48,30.85,11.33s5.5-28.2-8.66-31.73c-3.12-.78-4.45,4-1.33,4.82Z"/><path class="cls-4" d="M80.35,28.67c5.14-9.18,18.52-10.31,23.91-.62C110,38.4,100.81,49.18,89.85,47.92c-3.19-.37-3.17,4.63,0,5,14.88,1.71,26.25-14,18.73-27.4C101.34,12.62,83,13.7,76,26.14c-1.58,2.81,2.74,5.34,4.32,2.53Z"/><path class="cls-4" d="M88.33,34.72c-.12-3.12,2.75-5.26,5.59-3.69s5.35-2.77,2.53-4.32a8.77,8.77,0,0,0-13.12,8c.13,3.2,5.13,3.22,5,0Z"/><path class="cls-4" d="M137.76,76.55a6.4,6.4,0,0,1-2,1.63c-2,1-3.39-.06-4.74-1.63-2.1-2.45-5.62,1.11-3.53,3.54,2.28,2.66,5.56,4.29,9.07,3.16a10.62,10.62,0,0,0,4.72-3.16c2.06-2.45-1.46-6-3.53-3.54Z"/></svg>